<svg xmlns="http://www.w3.org/2000/svg" viewBox="0 0 20 25" x="0px" y="0px"><title>Slide-Settings</title><path d="M20.24,5.65V2.91a0.91,0.91,0,1,0-1.82,0V5.65a2.66,2.66,0,0,0,0,5V21.09a0.91,0.91,0,1,0,1.82,0V10.65A2.66,2.66,0,0,0,20.24,5.65Zm-0.91,3.8a1.3,1.3,0,1,1,1.3-1.3A1.3,1.3,0,0,1,19.33,9.45Z" transform="translate(-2 -2)"/><path d="M12.91,12.64V2.91a0.91,0.91,0,0,0-1.82,0v9.73a2.66,2.66,0,0,0,0,5v3.44a0.91,0.91,0,0,0,1.82,0V17.65A2.66,2.66,0,0,0,12.91,12.64ZM12,16.44a1.3,1.3,0,1,1,1.3-1.3A1.3,1.3,0,0,1,12,16.44Z" transform="translate(-2 -2)"/><path d="M5.61,8.67V2.91a0.91,0.91,0,0,0-1.82,0V8.65a2.66,2.66,0,0,0,0,5v7.42a0.91,0.91,0,1,0,1.82,0V13.65A2.66,2.66,0,0,0,5.61,8.67ZM4.67,12.46A1.3,1.3,0,1,1,6,11.16,1.3,1.3,0,0,1,4.67,12.46Z" transform="translate(-2 -2)"/><text x="0" y="35" fill="#000000" font-size="5px" font-weight="bold" font-family="'Helvetica Neue', Helvetica, Arial-Unicode, Arial, Sans-serif">Created by Maria Varagilal</text><text x="0" y="40" fill="#000000" font-size="5px" font-weight="bold" font-family="'Helvetica Neue', Helvetica, Arial-Unicode, Arial, Sans-serif">from the Noun Project</text></svg>